<?xml version="1.0" encoding="UTF-8" standalone="no"?>
<svg
   xmlns:dc="http://purl.org/dc/elements/1.1/"
   xmlns:cc="http://creativecommons.org/ns#"
   xmlns:rdf="http://www.w3.org/1999/02/22-rdf-syntax-ns#"
   xmlns:svg="http://www.w3.org/2000/svg"
   xmlns="http://www.w3.org/2000/svg"
   viewBox="0 0 1122.52 793.70135"
   height="793.70135"
   width="1122.52"
   xml:space="preserve"
   id="svg2"
   version="1.1"><metadata
     id="metadata8"><rdf:RDF><cc:Work
         rdf:about=""><dc:format>image/svg+xml</dc:format><dc:type
           rdf:resource="http://purl.org/dc/dcmitype/StillImage" /></cc:Work></rdf:RDF></metadata><defs
     id="defs6"><clipPath
       id="clipPath18"
       clipPathUnits="userSpaceOnUse"><path
         id="path16"
         d="M 0,595.276 H 841.89 V 0 H 0 Z" /></clipPath></defs><g
     transform="matrix(1.3333333,0,0,-1.3333333,0,793.70133)"
     id="g10"><g
       id="g12"><g
         clip-path="url(#clipPath18)"
         id="g14"><g
           transform="translate(544.8163,155.8658)"
           id="g20"><path
             id="path22"
             style="fill:#231f20;fill-opacity:1;fill-rule:nonzero;stroke:none"
             d="m 0,0 c -0.133,0.21 -0.26,0.446 -0.381,0.705 -0.122,0.26 -0.232,0.521 -0.333,0.788 -0.098,0.264 -0.187,0.523 -0.264,0.771 -0.077,0.248 -0.145,0.472 -0.199,0.671 -0.068,0.254 -0.186,0.437 -0.357,0.547 -0.171,0.11 -0.38,0.166 -0.621,0.166 C -2.3,3.648 -2.476,3.628 -2.686,3.59 -2.897,3.551 -3.117,3.497 -3.35,3.424 -3.582,3.352 -3.814,3.27 -4.046,3.176 -4.278,3.081 -4.495,2.979 -4.694,2.869 -4.417,2.57 -4.087,2.26 -3.706,1.94 c 0.382,-0.321 0.781,-0.622 1.202,-0.904 0.419,-0.281 0.84,-0.528 1.259,-0.737 0.421,-0.21 0.808,-0.36 1.161,-0.449 z m 3.002,-2.122 c -0.442,0 -0.86,0.105 -1.253,0.315 -0.393,0.209 -0.766,0.569 -1.119,1.077 l -1.112,-2.038 c -0.596,0.198 -1.177,0.435 -1.741,0.711 -0.564,0.277 -1.093,0.572 -1.591,0.888 -0.498,0.316 -0.95,0.638 -1.36,0.97 -0.409,0.332 -0.762,0.653 -1.062,0.962 L -5.405,2.57 C -5.616,2.459 -5.864,2.325 -6.152,2.163 -6.44,2.004 -6.732,1.835 -7.031,1.659 -7.329,1.481 -7.613,1.307 -7.885,1.136 -8.156,0.965 -8.379,0.812 -8.557,0.681 c 0.1,-0.632 0.202,-1.344 0.307,-2.141 0.106,-0.796 0.203,-1.629 0.29,-2.504 0.089,-0.873 0.161,-1.754 0.217,-2.643 0.054,-0.891 0.082,-1.74 0.082,-2.547 l -1.128,-3.067 h -0.066 c 0,0.575 -0.023,1.208 -0.067,1.898 -0.044,0.693 -0.107,1.411 -0.191,2.157 -0.082,0.745 -0.172,1.503 -0.273,2.271 -0.1,0.769 -0.207,1.515 -0.323,2.239 -0.115,0.725 -0.229,1.412 -0.339,2.065 -0.112,0.651 -0.217,1.231 -0.316,1.741 0.089,0.276 0.199,0.557 0.332,0.845 0.132,0.287 0.282,0.564 0.448,0.83 0.166,0.265 0.34,0.509 0.522,0.736 0.183,0.227 0.362,0.424 0.538,0.589 0.2,0.177 0.478,0.376 0.838,0.598 0.359,0.221 0.757,0.444 1.194,0.671 0.437,0.227 0.888,0.446 1.351,0.654 0.466,0.211 0.904,0.397 1.319,0.556 0.414,0.161 0.782,0.291 1.103,0.39 0.32,0.1 0.552,0.149 0.695,0.149 0.311,0 0.564,-0.046 0.763,-0.141 C -1.062,5.933 -0.896,5.802 -0.763,5.629 -0.63,5.458 -0.519,5.254 -0.431,5.016 -0.344,4.779 -0.248,4.511 -0.15,4.212 -0.007,3.781 0.15,3.359 0.316,2.943 0.48,2.528 0.653,2.155 0.829,1.825 1.138,1.327 1.47,0.95 1.823,0.697 2.178,0.442 2.586,0.316 3.051,0.316 h 0.513 v -2.438 z" /></g><g
           transform="translate(553.5048,148.5533)"
           id="g24"><path
             id="path26"
             style="fill:#231f20;fill-opacity:1;fill-rule:nonzero;stroke:none"
             d="M 0,0 -2.007,1.194 -2.92,0 -5.024,1.243 -3.599,3.15 -1.609,1.923 -0.681,3.15 1.425,1.858 Z m -5.124,5.19 c -0.122,0 -0.252,0.017 -0.39,0.049 -0.138,0.033 -0.271,0.081 -0.398,0.142 -0.126,0.061 -0.232,0.138 -0.315,0.232 -0.083,0.093 -0.124,0.202 -0.124,0.323 v 0.946 c 0,0.133 0.041,0.245 0.124,0.34 0.083,0.094 0.189,0.171 0.315,0.232 0.127,0.061 0.26,0.105 0.398,0.131 0.138,0.028 0.268,0.043 0.39,0.043 h 4.609 c 0,0.342 -0.049,0.659 -0.149,0.954 -0.099,0.292 -0.227,0.565 -0.382,0.82 -0.154,0.255 -0.32,0.487 -0.496,0.697 -0.178,0.209 -0.344,0.398 -0.498,0.564 l 1.177,2.719 c 0.21,-0.299 0.418,-0.636 0.621,-1.013 C -0.036,11.995 0.146,11.61 0.306,11.217 0.467,10.826 0.597,10.433 0.695,10.04 0.796,9.647 0.845,9.285 0.845,8.955 0.845,8.633 0.817,8.305 0.763,7.967 0.707,7.63 0.633,7.299 0.538,6.972 0.444,6.647 0.345,6.331 0.24,6.027 0.135,5.723 0.033,5.445 -0.067,5.19 Z" /></g><g
           transform="translate(560.3537,153.7434)"
           id="g28"><path
             id="path30"
             style="fill:#231f20;fill-opacity:1;fill-rule:nonzero;stroke:none"
             d="M 0,0 C -0.276,0 -0.531,0.064 -0.763,0.191 -0.995,0.317 -1.144,0.426 -1.21,0.515 -1.376,0.714 -1.504,0.967 -1.591,1.277 -1.68,1.586 -1.748,1.973 -1.79,2.438 -1.846,3.089 -1.907,3.794 -1.973,4.552 -2.04,5.308 -2.106,6.088 -2.172,6.89 c -0.067,0.801 -0.133,1.611 -0.199,2.43 -0.067,0.817 -0.133,1.613 -0.199,2.387 -0.067,0.774 -0.128,1.511 -0.182,2.214 -0.056,0.701 -0.105,1.334 -0.15,1.897 L -1.31,18.521 -0.349,3.947 C -0.326,3.526 -0.235,3.17 -0.074,2.877 0.086,2.584 0.375,2.438 0.796,2.438 H 2.918 V 0 Z" /></g><g
           transform="translate(569.0587,163.9246)"
           id="g32"><path
             id="path34"
             style="fill:#231f20;fill-opacity:1;fill-rule:nonzero;stroke:none"
             d="M 0,0 -2.006,1.194 -2.918,0 -5.024,1.244 -3.599,3.15 -1.608,1.923 -0.679,3.15 1.427,1.858 Z m -5.787,-10.181 c -0.122,0 -0.251,0.016 -0.39,0.049 -0.138,0.033 -0.271,0.081 -0.397,0.141 -0.127,0.061 -0.232,0.139 -0.316,0.232 -0.082,0.094 -0.123,0.202 -0.123,0.324 v 0.945 c 0,0.134 0.041,0.245 0.123,0.341 0.084,0.093 0.189,0.171 0.316,0.232 0.126,0.06 0.259,0.105 0.397,0.131 0.139,0.028 0.268,0.043 0.39,0.043 h 4.61 c 0,0.342 -0.049,0.659 -0.15,0.953 -0.098,0.293 -0.227,0.566 -0.381,0.821 -0.155,0.254 -0.321,0.486 -0.497,0.697 -0.177,0.209 -0.343,0.398 -0.498,0.564 l 1.177,2.719 c 0.211,-0.299 0.418,-0.636 0.622,-1.013 0.205,-0.375 0.388,-0.759 0.547,-1.152 0.161,-0.392 0.291,-0.785 0.39,-1.177 0.1,-0.393 0.149,-0.755 0.149,-1.086 C 0.182,-6.739 0.155,-7.066 0.1,-7.405 0.044,-7.742 -0.03,-8.072 -0.125,-8.399 -0.219,-8.725 -0.317,-9.04 -0.423,-9.344 -0.528,-9.649 -0.63,-9.926 -0.73,-10.181 Z" /></g><g
           transform="translate(588.1437,150.0789)"
           id="g36"><path
             id="path38"
             style="fill:#231f20;fill-opacity:1;fill-rule:nonzero;stroke:none"
             d="M 0,0 -2.237,1.36 -0.812,3.267 1.427,1.874 Z M 6.931,-4.659 C 6.346,-4.881 5.733,-5.101 5.091,-5.323 4.45,-5.544 3.817,-5.742 3.193,-5.92 2.568,-6.096 1.974,-6.241 1.411,-6.351 0.847,-6.461 0.349,-6.517 -0.082,-6.517 c -1.306,0 -2.405,0.094 -3.3,0.281 -0.896,0.189 -1.639,0.441 -2.231,0.755 -0.591,0.316 -1.05,0.684 -1.376,1.103 -0.327,0.421 -0.563,0.863 -0.713,1.327 -0.15,0.463 -0.24,0.937 -0.273,1.417 -0.033,0.482 -0.051,0.944 -0.051,1.386 0,1.06 0.12,2.002 0.357,2.826 0.238,0.823 0.519,1.542 0.846,2.157 0.326,0.613 0.663,1.126 1.011,1.542 0.349,0.414 0.638,0.736 0.872,0.97 0.363,0.365 0.809,0.743 1.333,1.136 0.526,0.391 1.054,0.731 1.585,1.019 -0.796,0.089 -1.573,0.168 -2.33,0.24 -0.758,0.072 -1.517,0.109 -2.28,0.109 -0.388,0 -0.705,-0.101 -0.953,-0.3 -0.25,-0.199 -0.462,-0.414 -0.64,-0.646 l -0.48,0.265 c 0.187,0.519 0.386,0.981 0.597,1.384 0.21,0.405 0.445,0.742 0.705,1.013 0.26,0.269 0.557,0.477 0.894,0.621 0.337,0.143 0.722,0.216 1.153,0.216 0.21,0 0.459,-0.015 0.746,-0.041 0.288,-0.028 0.587,-0.06 0.896,-0.093 0.796,-0.088 1.814,-0.187 3.051,-0.297 1.238,-0.112 2.775,-0.166 4.61,-0.166 L 2.852,9.236 C 2.62,9.213 2.382,9.187 2.139,9.154 1.896,9.119 1.631,9.078 1.343,9.029 1.055,8.979 0.738,8.912 0.39,8.83 0.041,8.746 -0.353,8.644 -0.796,8.522 -1.779,8.192 -2.667,7.768 -3.457,7.255 -4.248,6.74 -4.919,6.144 -5.471,5.463 -6.025,4.784 -6.448,4.023 -6.74,3.183 -7.033,2.344 -7.179,1.425 -7.179,0.431 c 0,-0.707 0.166,-1.311 0.496,-1.807 0.332,-0.498 0.806,-0.916 1.419,-1.253 0.613,-0.337 1.345,-0.605 2.196,-0.804 0.852,-0.199 1.794,-0.348 2.828,-0.447 1.034,-0.1 2.147,-0.163 3.341,-0.191 1.195,-0.027 2.433,-0.042 3.715,-0.042 z" /></g><g
           transform="translate(600.7958,164.1893)"
           id="g40"><path
             id="path42"
             style="fill:#231f20;fill-opacity:1;fill-rule:nonzero;stroke:none"
             d="m 0,0 c 0.035,0.155 0.113,0.276 0.242,0.365 0.126,0.089 0.268,0.133 0.422,0.133 0.188,0 0.391,-0.077 0.613,-0.232 0.63,-0.486 1.174,-1.022 1.635,-1.609 0.457,-0.585 0.841,-1.185 1.152,-1.799 0.309,-0.613 0.538,-1.218 0.687,-1.815 0.15,-0.598 0.224,-1.15 0.224,-1.658 0,-0.354 -0.03,-0.694 -0.091,-1.02 C 4.823,-7.962 4.748,-8.268 4.661,-8.555 4.572,-8.843 4.475,-9.108 4.37,-9.351 4.265,-9.594 4.168,-9.805 4.08,-9.982 c -0.177,-0.087 -0.458,-0.184 -0.846,-0.29 -0.387,-0.105 -0.837,-0.204 -1.352,-0.299 -0.514,-0.094 -1.068,-0.171 -1.667,-0.232 -0.596,-0.06 -1.187,-0.09 -1.773,-0.09 -0.52,0 -0.954,0.016 -1.303,0.049 -0.346,0.033 -0.629,0.102 -0.845,0.207 -0.215,0.106 -0.369,0.255 -0.463,0.448 -0.095,0.194 -0.141,0.457 -0.141,0.787 0,0.145 0.013,0.316 0.041,0.515 0.028,0.199 0.065,0.409 0.116,0.629 0.05,0.222 0.106,0.446 0.166,0.673 0.06,0.226 0.124,0.439 0.191,0.637 l 0.513,-0.149 c 0,-0.276 0.033,-0.495 0.1,-0.654 0.066,-0.162 0.183,-0.282 0.349,-0.365 0.164,-0.083 0.383,-0.135 0.654,-0.158 0.271,-0.022 0.617,-0.033 1.036,-0.033 0.498,0 1.047,0.031 1.65,0.092 0.602,0.059 1.169,0.135 1.7,0.224 0.531,0.088 0.975,0.174 1.335,0.256 0.359,0.084 0.539,0.151 0.539,0.207 0,0.332 -0.075,0.694 -0.225,1.087 -0.148,0.391 -0.345,0.781 -0.588,1.169 -0.244,0.386 -0.522,0.759 -0.837,1.119 -0.316,0.359 -0.641,0.678 -0.978,0.954 -0.337,0.276 -0.673,0.496 -1.003,0.662 -0.332,0.166 -0.631,0.249 -0.896,0.249 z" /></g><g
           transform="translate(612.0062,161.0065)"
           id="g44"><path
             id="path46"
             style="fill:#231f20;fill-opacity:1;fill-rule:nonzero;stroke:none"
             d="m 0,0 c 0.276,-0.321 0.539,-0.666 0.787,-1.037 0.249,-0.37 0.467,-0.776 0.656,-1.219 0.188,-0.442 0.337,-0.917 0.448,-1.425 0.11,-0.51 0.166,-1.062 0.166,-1.659 0,-0.575 -0.084,-1.164 -0.25,-1.765 C 1.642,-7.709 1.417,-8.294 1.136,-8.863 0.853,-9.433 0.52,-9.971 0.133,-10.48 c -0.388,-0.508 -0.799,-0.954 -1.236,-1.335 -0.436,-0.382 -0.893,-0.683 -1.368,-0.903 -0.475,-0.222 -0.945,-0.332 -1.409,-0.332 -0.697,0 -1.46,0.135 -2.288,0.406 -0.829,0.271 -1.819,0.715 -2.969,1.335 l 0.199,0.498 c 0.332,-0.112 0.619,-0.205 0.863,-0.283 0.243,-0.077 0.467,-0.141 0.67,-0.19 0.206,-0.05 0.405,-0.086 0.599,-0.109 0.192,-0.021 0.399,-0.033 0.621,-0.033 0.541,0 1.1,0.112 1.676,0.332 0.573,0.222 1.126,0.512 1.657,0.872 0.531,0.358 1.034,0.756 1.509,1.193 0.475,0.438 0.889,0.873 1.243,1.31 0.355,0.436 0.633,0.849 0.838,1.235 0.204,0.386 0.306,0.702 0.306,0.945 0,0.176 -0.082,0.39 -0.248,0.638 -0.166,0.25 -0.377,0.51 -0.63,0.78 -0.255,0.271 -0.536,0.547 -0.847,0.83 -0.309,0.281 -0.613,0.544 -0.91,0.787 z" /></g><g
           transform="translate(617.9246,148.0552)"
           id="g48"><path
             id="path50"
             style="fill:#231f20;fill-opacity:1;fill-rule:nonzero;stroke:none"
             d="M 0,0 -2.237,1.36 -0.812,3.267 1.427,1.874 Z M 4.064,5.688 H 2.62 C 2.167,5.688 1.777,5.774 1.452,5.945 1.126,6.117 0.852,6.349 0.631,6.642 0.409,6.934 0.235,7.27 0.108,7.645 c -0.126,0.376 -0.212,0.767 -0.256,1.177 -0.044,0.32 -0.084,0.644 -0.117,0.97 -0.033,0.327 -0.072,0.656 -0.115,0.988 -0.034,0.264 -0.064,0.516 -0.092,0.753 -0.028,0.238 -0.052,0.462 -0.074,0.672 h -0.199 c -0.023,-0.1 -0.047,-0.214 -0.075,-0.34 -0.028,-0.127 -0.069,-0.268 -0.124,-0.423 -0.1,-0.265 -0.227,-0.523 -0.381,-0.771 C -1.481,10.423 -1.68,10.188 -1.923,9.966 -2.045,9.856 -2.183,9.759 -2.338,9.677 -2.492,9.593 -2.65,9.522 -2.81,9.461 -2.971,9.4 -3.122,9.356 -3.267,9.328 -3.41,9.3 -3.531,9.287 -3.63,9.287 h -0.498 l -1.858,3.283 c -0.021,0.021 -0.033,0.046 -0.033,0.074 v 0.059 c 0,0.076 0.028,0.115 0.084,0.115 0.066,0 0.127,-0.028 0.183,-0.082 0.131,-0.166 0.292,-0.312 0.48,-0.441 0.187,-0.126 0.378,-0.231 0.572,-0.314 0.194,-0.083 0.381,-0.144 0.564,-0.182 0.182,-0.04 0.34,-0.058 0.472,-0.058 0.31,0 0.619,0.051 0.928,0.157 0.311,0.105 0.589,0.258 0.839,0.457 0.248,0.199 0.455,0.443 0.621,0.738 0.166,0.292 0.265,0.621 0.298,0.986 0,0.143 0.084,0.298 0.25,0.464 l 1.027,1.675 H 0.365 L 1.343,10.249 C 1.443,9.617 1.664,9.106 2.007,8.715 2.349,8.322 2.852,8.126 3.516,8.126 h 0.548 z" /></g><g
           transform="translate(626.2662,158.1871)"
           id="g52"><path
             id="path54"
             style="fill:#231f20;fill-opacity:1;fill-rule:nonzero;stroke:none"
             d="M 0,0 C 0.155,-0.077 0.307,-0.155 0.457,-0.232 0.605,-0.309 0.758,-0.393 0.912,-0.48 1.221,-0.646 1.529,-0.807 1.833,-0.962 2.137,-1.116 2.423,-1.258 2.694,-1.384 2.966,-1.511 3.217,-1.614 3.449,-1.692 3.681,-1.769 3.88,-1.813 4.046,-1.823 3.957,-1.415 3.854,-0.991 3.732,-0.556 3.61,-0.118 3.466,0.283 3.299,0.648 3.135,1.011 2.941,1.314 2.719,1.55 2.499,1.789 2.251,1.907 1.974,1.907 1.277,1.907 0.62,1.271 0,0 M 4.444,-4.825 C 4.036,-4.736 3.623,-4.629 3.209,-4.501 2.795,-4.375 2.3,-4.172 1.725,-3.896 1.228,-3.664 0.741,-3.41 0.266,-3.133 c -0.476,0.276 -0.891,0.54 -1.244,0.795 -0.099,-0.187 -0.194,-0.376 -0.281,-0.564 -0.089,-0.187 -0.222,-0.421 -0.398,-0.697 -0.178,-0.276 -0.388,-0.486 -0.631,-0.629 -0.244,-0.143 -0.497,-0.216 -0.763,-0.216 h -1.227 c -0.121,0 -0.251,0.017 -0.389,0.05 -0.138,0.032 -0.272,0.08 -0.398,0.141 -0.127,0.061 -0.232,0.138 -0.316,0.232 -0.082,0.094 -0.123,0.202 -0.123,0.324 v 0.945 c 0,0.133 0.041,0.245 0.123,0.34 0.084,0.094 0.189,0.171 0.316,0.232 0.126,0.061 0.26,0.105 0.398,0.132 0.138,0.028 0.268,0.042 0.389,0.042 h 1.161 c 0.166,0 0.324,0.035 0.473,0.107 0.148,0.073 0.287,0.161 0.415,0.267 0.126,0.103 0.24,0.223 0.338,0.355 0.101,0.133 0.178,0.266 0.234,0.399 0.131,0.286 0.289,0.607 0.472,0.962 0.182,0.353 0.386,0.712 0.613,1.077 0.227,0.365 0.473,0.721 0.738,1.07 0.266,0.348 0.551,0.654 0.855,0.921 0.302,0.264 0.618,0.48 0.945,0.646 0.326,0.166 0.666,0.248 1.019,0.248 0.42,0 0.816,-0.211 1.186,-0.63 C 4.541,2.995 4.837,2.405 5.059,1.642 5.124,1.42 5.182,1.2 5.233,0.978 5.282,0.758 5.335,0.536 5.389,0.316 5.478,-0.15 5.583,-0.589 5.705,-1.003 5.826,-1.417 5.976,-1.818 6.152,-2.205 Z" /></g><g
           transform="translate(638.4219,153.7434)"
           id="g56"><path
             id="path58"
             style="fill:#231f20;fill-opacity:1;fill-rule:nonzero;stroke:none"
             d="M 0,0 C -0.276,0 -0.531,0.064 -0.763,0.191 -0.995,0.317 -1.144,0.426 -1.21,0.515 -1.376,0.714 -1.504,0.967 -1.591,1.277 -1.68,1.586 -1.748,1.973 -1.79,2.438 -1.846,3.089 -1.907,3.794 -1.973,4.552 -2.04,5.308 -2.106,6.088 -2.172,6.89 c -0.067,0.801 -0.133,1.611 -0.199,2.43 -0.067,0.817 -0.133,1.613 -0.199,2.387 -0.067,0.774 -0.128,1.511 -0.182,2.214 -0.056,0.701 -0.105,1.334 -0.15,1.897 L -1.31,18.521 -0.349,3.947 C -0.326,3.526 -0.235,3.17 -0.074,2.877 0.086,2.584 0.375,2.438 0.796,2.438 H 2.918 V 0 Z" /></g><g
           transform="translate(650.4263,170.4578)"
           id="g60"><path
             id="path62"
             style="fill:#231f20;fill-opacity:1;fill-rule:nonzero;stroke:none"
             d="m 0,0 c -0.751,-0.321 -1.57,-0.666 -2.454,-1.036 -0.885,-0.371 -1.783,-0.753 -2.695,-1.144 -0.911,-0.393 -1.81,-0.779 -2.694,-1.161 -0.885,-0.381 -1.702,-0.744 -2.455,-1.086 0.531,-0.365 1.144,-0.807 1.841,-1.327 0.697,-0.519 1.391,-1.069 2.082,-1.651 0.69,-0.58 1.336,-1.165 1.94,-1.757 0.601,-0.59 1.08,-1.141 1.433,-1.649 0.288,-0.421 0.51,-0.812 0.664,-1.177 0.155,-0.365 0.232,-0.786 0.232,-1.261 0,-0.265 -0.033,-0.547 -0.099,-0.845 -0.067,-0.299 -0.148,-0.597 -0.241,-0.896 -0.094,-0.299 -0.193,-0.595 -0.298,-0.888 -0.105,-0.292 -0.202,-0.572 -0.291,-0.836 h -7.544 c -0.122,0 -0.252,0.016 -0.39,0.049 -0.138,0.033 -0.271,0.08 -0.398,0.141 -0.126,0.061 -0.231,0.138 -0.315,0.232 -0.082,0.094 -0.123,0.202 -0.123,0.324 v 0.945 c 0,0.133 0.041,0.245 0.123,0.341 0.084,0.093 0.189,0.17 0.315,0.231 0.127,0.061 0.26,0.106 0.398,0.132 0.138,0.028 0.268,0.043 0.39,0.043 h 7.214 c -0.068,0.43 -0.288,0.894 -0.664,1.392 -0.377,0.498 -0.837,0.998 -1.385,1.501 -0.547,0.503 -1.144,1.003 -1.79,1.501 -0.648,0.496 -1.269,0.962 -1.866,1.392 l -0.1,-0.828 -1.907,0.962 c -0.773,0.374 -1.161,1.044 -1.161,2.005 0,0.464 0.105,0.99 0.316,1.575 0.21,0.587 0.536,1.228 0.978,1.924 0.089,0.144 0.34,0.332 0.755,0.564 0.414,0.231 0.945,0.498 1.591,0.795 0.648,0.299 1.383,0.625 2.206,0.978 0.824,0.356 1.689,0.719 2.594,1.095 l 4.909,2.024 z" /></g><g
           transform="translate(666.3779,159.0995)"
           id="g64"><path
             id="path66"
             style="fill:#231f20;fill-opacity:1;fill-rule:nonzero;stroke:none"
             d="M 0,0 -0.298,4.046 C -0.452,3.824 -0.597,3.584 -0.728,3.324 -0.861,3.064 -1.027,2.879 -1.226,2.768 -1.325,2.703 -1.544,2.594 -1.881,2.446 -2.219,2.297 -2.589,2.134 -2.992,1.956 -3.396,1.779 -3.791,1.608 -4.177,1.442 -4.565,1.277 -4.858,1.144 -5.057,1.044 L -5.239,0.763 c 0.762,-0.276 1.528,-0.487 2.296,-0.63 0.768,-0.145 1.6,-0.278 2.496,-0.398 z m -1.425,8.639 -2.006,1.194 -0.912,-1.194 -2.106,1.243 1.425,1.907 1.991,-1.226 0.927,1.226 L 0,10.497 Z M 2.953,-5.356 c -0.476,0 -0.9,0.108 -1.27,0.324 -0.369,0.215 -0.654,0.45 -0.853,0.703 -0.133,0.166 -0.24,0.374 -0.324,0.623 -0.082,0.249 -0.151,0.528 -0.207,0.837 -0.056,0.309 -0.1,0.636 -0.133,0.978 C 0.133,-1.549 0.1,-1.21 0.067,-0.88 h -0.299 l -1.31,-2.022 c -0.607,0.089 -1.197,0.193 -1.766,0.314 -0.569,0.122 -1.091,0.26 -1.566,0.416 -0.354,0.11 -0.645,0.216 -0.87,0.314 -0.227,0.101 -0.408,0.199 -0.539,0.299 -0.134,0.099 -0.224,0.204 -0.275,0.314 -0.049,0.112 -0.074,0.234 -0.074,0.365 0,0.178 0.074,0.438 0.224,0.78 0.149,0.343 0.325,0.697 0.531,1.062 0.204,0.365 0.409,0.707 0.613,1.027 0.204,0.321 0.362,0.543 0.472,0.664 0.077,0.088 0.205,0.191 0.381,0.306 0.178,0.117 0.393,0.242 0.648,0.373 0.253,0.134 0.536,0.277 0.845,0.433 0.309,0.154 0.631,0.309 0.962,0.463 0.266,0.122 0.527,0.244 0.787,0.365 0.26,0.122 0.518,0.244 0.771,0.365 0,0.078 -0.005,0.176 -0.016,0.298 -0.01,0.121 -0.02,0.25 -0.025,0.381 C -0.444,5.77 -0.452,5.895 -0.464,6.01 -0.475,6.127 -0.48,6.218 -0.48,6.285 L 1.029,8.539 1.261,5.09 C 1.294,4.682 1.333,4.189 1.378,3.615 1.42,3.04 1.468,2.454 1.517,1.858 1.568,1.259 1.619,0.686 1.675,0.133 1.731,-0.421 1.78,-0.884 1.825,-1.261 1.858,-1.582 1.93,-1.843 2.04,-2.048 c 0.11,-0.204 0.216,-0.341 0.316,-0.406 0.22,-0.155 0.447,-0.265 0.679,-0.333 0.232,-0.065 0.531,-0.11 0.896,-0.131 h 1.16 v -2.438 z" /></g><g
           transform="translate(690.224,153.7434)"
           id="g68"><path
             id="path70"
             style="fill:#231f20;fill-opacity:1;fill-rule:nonzero;stroke:none"
             d="M 0,0 C -0.398,0 -0.796,0.138 -1.195,0.414 -1.593,0.69 -1.881,1.083 -2.057,1.591 H -2.223 C -2.279,1.415 -2.336,1.23 -2.397,1.036 -2.458,0.843 -2.519,0.661 -2.579,0.49 -2.64,0.317 -2.694,0.163 -2.745,0.025 c -0.05,-0.138 -0.097,-0.245 -0.14,-0.324 -0.211,-0.364 -0.406,-0.599 -0.589,-0.704 -0.182,-0.105 -0.389,-0.158 -0.623,-0.158 -0.121,0 -0.279,0.117 -0.472,0.349 -0.194,0.232 -0.389,0.511 -0.588,0.837 C -5.356,0.35 -5.55,0.697 -5.737,1.062 -5.927,1.425 -6.081,1.741 -6.203,2.006 -6.456,1.697 -6.801,1.44 -7.238,1.235 -7.676,1.031 -8.151,0.865 -8.664,0.738 -9.178,0.61 -9.701,0.52 -10.232,0.464 c -0.53,-0.055 -1.011,-0.083 -1.442,-0.083 -0.321,0 -0.589,0.086 -0.804,0.257 -0.215,0.171 -0.324,0.424 -0.324,0.754 h -0.065 C -13.078,1.182 -13.39,0.991 -13.805,0.82 -14.219,0.649 -14.696,0.503 -15.232,0.381 -15.768,0.26 -16.34,0.166 -16.948,0.1 -17.555,0.033 -18.158,0 -18.755,0 c -0.121,0 -0.251,0.016 -0.389,0.049 -0.138,0.033 -0.272,0.081 -0.398,0.142 -0.127,0.061 -0.232,0.138 -0.316,0.232 -0.082,0.093 -0.123,0.202 -0.123,0.323 v 0.946 c 0,0.133 0.044,0.245 0.131,0.34 0.089,0.094 0.194,0.171 0.316,0.232 0.122,0.061 0.255,0.105 0.398,0.131 0.143,0.028 0.271,0.043 0.381,0.043 0.155,0 0.316,0.002 0.482,0.008 0.164,0.005 0.326,0.013 0.48,0.025 0.63,0.033 1.241,0.102 1.833,0.207 0.59,0.105 1.133,0.235 1.624,0.39 0.492,0.154 0.921,0.337 1.286,0.547 0.365,0.209 0.641,0.436 0.829,0.679 0.299,0.409 0.58,0.855 0.845,1.335 0.266,0.482 0.509,1.009 0.73,1.585 L -9.8,6.915 C -9.956,6.351 -10.14,5.81 -10.355,5.29 -10.571,4.769 -10.806,4.278 -11.061,3.814 -11.127,3.692 -11.196,3.574 -11.268,3.457 -11.34,3.341 -11.376,3.272 -11.376,3.25 c 0,-0.166 0.304,-0.248 0.912,-0.248 0.288,0 0.597,0.01 0.929,0.033 0.332,0.021 0.657,0.057 0.978,0.107 0.321,0.051 0.625,0.121 0.912,0.215 0.288,0.095 0.536,0.214 0.747,0.357 0.199,0.133 0.386,0.34 0.564,0.623 0.176,0.281 0.338,0.593 0.488,0.935 0.15,0.344 0.284,0.686 0.406,1.029 0.122,0.342 0.227,0.647 0.316,0.913 l 0.845,-0.25 C -4.357,6.578 -4.458,6.147 -4.585,5.672 -4.713,5.195 -4.848,4.753 -4.991,4.345 c 0.077,-0.21 0.182,-0.462 0.314,-0.755 0.133,-0.294 0.268,-0.575 0.406,-0.846 0.138,-0.271 0.266,-0.5 0.381,-0.687 0.117,-0.189 0.203,-0.283 0.258,-0.283 0.066,0 0.124,0.025 0.175,0.075 0.049,0.05 0.09,0.114 0.123,0.191 0.033,0.077 0.064,0.156 0.092,0.24 0.028,0.082 0.053,0.151 0.074,0.207 0.1,0.277 0.21,0.605 0.332,0.987 0.122,0.381 0.24,0.779 0.357,1.193 0.115,0.415 0.228,0.824 0.34,1.228 0.11,0.403 0.204,0.76 0.281,1.069 l 0.88,-0.199 C -1.034,6.356 -1.123,5.884 -1.245,5.348 -1.366,4.812 -1.493,4.278 -1.626,3.748 -1.516,3.449 -1.383,3.214 -1.228,3.043 -1.073,2.872 -0.893,2.742 -0.689,2.653 -0.485,2.565 -0.258,2.507 -0.008,2.479 0.24,2.451 0.508,2.438 0.796,2.438 H 1.542 V 0 Z" /></g><g
           transform="translate(708.8274,161.023)"
           id="g72"><path
             id="path74"
             style="fill:#231f20;fill-opacity:1;fill-rule:nonzero;stroke:none"
             d="M 0,0 C 0.066,-0.145 0.155,-0.349 0.265,-0.613 0.375,-0.88 0.487,-1.175 0.597,-1.501 0.707,-1.826 0.801,-2.167 0.878,-2.52 0.955,-2.874 0.995,-3.212 0.995,-3.531 0.995,-3.975 0.947,-4.419 0.853,-4.866 0.76,-5.315 0.569,-5.787 0.281,-6.285 0.038,-6.704 -0.166,-7.017 -0.332,-7.222 c -0.166,-0.204 -0.386,-0.306 -0.663,-0.306 -0.088,0 -0.226,0.038 -0.414,0.115 -0.189,0.078 -0.401,0.178 -0.639,0.299 -0.237,0.122 -0.492,0.26 -0.763,0.415 -0.271,0.154 -0.528,0.312 -0.771,0.472 -0.244,0.161 -0.467,0.315 -0.671,0.465 -0.205,0.149 -0.357,0.273 -0.457,0.373 -0.265,-0.255 -0.613,-0.467 -1.044,-0.638 -0.431,-0.172 -0.896,-0.314 -1.392,-0.424 -0.499,-0.11 -0.998,-0.191 -1.501,-0.24 -0.503,-0.049 -0.954,-0.074 -1.352,-0.074 -0.421,0 -0.713,0.079 -0.879,0.24 -0.166,0.159 -0.249,0.373 -0.249,0.638 h -0.116 c -0.199,-0.22 -0.505,-0.418 -0.919,-0.589 -0.416,-0.171 -0.888,-0.317 -1.419,-0.439 -0.531,-0.121 -1.1,-0.213 -1.708,-0.274 -0.608,-0.061 -1.199,-0.091 -1.774,-0.091 -0.122,0 -0.252,0.017 -0.39,0.05 -0.138,0.033 -0.271,0.08 -0.397,0.141 -0.127,0.061 -0.232,0.138 -0.316,0.232 -0.082,0.094 -0.123,0.202 -0.123,0.324 v 0.945 c 0,0.133 0.041,0.245 0.123,0.34 0.084,0.094 0.189,0.171 0.316,0.232 0.126,0.061 0.259,0.105 0.397,0.132 0.138,0.028 0.268,0.042 0.39,0.042 0.187,0 0.37,0.002 0.547,0.009 0.176,0.005 0.359,0.013 0.548,0.024 0.618,0.033 1.221,0.099 1.807,0.199 0.585,0.099 1.119,0.229 1.599,0.39 0.482,0.159 0.9,0.342 1.253,0.547 0.353,0.204 0.613,0.428 0.779,0.671 0.321,0.475 0.605,0.94 0.853,1.394 0.25,0.452 0.485,0.967 0.706,1.542 l 0.846,-0.299 c -0.156,-0.575 -0.348,-1.144 -0.58,-1.708 -0.233,-0.564 -0.46,-1.028 -0.68,-1.393 -0.066,-0.121 -0.135,-0.24 -0.208,-0.356 -0.072,-0.117 -0.108,-0.186 -0.108,-0.207 0,-0.166 0.304,-0.249 0.912,-0.249 0.299,0 0.613,0.017 0.946,0.05 0.332,0.033 0.657,0.085 0.978,0.157 0.32,0.071 0.628,0.16 0.92,0.265 0.293,0.105 0.544,0.23 0.755,0.373 0.199,0.134 0.383,0.334 0.556,0.605 0.171,0.272 0.33,0.568 0.48,0.888 0.149,0.321 0.282,0.649 0.398,0.986 0.116,0.337 0.218,0.633 0.307,0.888 l 0.845,-0.25 c -0.044,-0.231 -0.099,-0.486 -0.166,-0.762 -0.066,-0.277 -0.138,-0.55 -0.215,-0.821 -0.078,-0.271 -0.16,-0.536 -0.249,-0.796 -0.089,-0.259 -0.177,-0.494 -0.264,-0.705 0.11,-0.143 0.322,-0.332 0.637,-0.564 0.316,-0.231 0.653,-0.458 1.012,-0.679 0.36,-0.222 0.697,-0.412 1.012,-0.572 0.314,-0.161 0.521,-0.24 0.622,-0.24 0.054,0 0.098,0.022 0.131,0.066 0.045,0.044 0.068,0.11 0.068,0.199 0,0.066 -0.007,0.21 -0.017,0.431 -0.011,0.222 -0.051,0.486 -0.117,0.795 -0.065,0.309 -0.174,0.641 -0.323,0.995 -0.148,0.355 -0.356,0.692 -0.622,1.013 z" /></g><g
           transform="translate(718.6782,156.2636)"
           id="g76"><path
             id="path78"
             style="fill:#231f20;fill-opacity:1;fill-rule:nonzero;stroke:none"
             d="M 0,0 C -0.11,0.332 -0.248,0.666 -0.414,1.003 -0.58,1.34 -0.763,1.651 -0.962,1.932 -1.161,2.214 -1.371,2.443 -1.591,2.621 -1.813,2.796 -2.034,2.885 -2.256,2.885 -2.499,2.885 -2.719,2.819 -2.918,2.686 -3.117,2.553 -3.286,2.397 -3.424,2.214 -3.563,2.032 -3.671,1.846 -3.748,1.659 -3.826,1.47 -3.863,1.322 -3.863,1.21 -3.776,0.922 -3.586,0.686 -3.291,0.498 -2.999,0.309 -2.537,0.171 -1.907,0.084 -1.808,0.072 -1.675,0.061 -1.509,0.049 -1.343,0.039 -1.169,0.031 -0.986,0.025 -0.804,0.02 -0.625,0.013 -0.447,0.008 -0.271,0.003 -0.122,0 0,0 M -0.746,7.677 C -1.1,7.589 -1.493,7.482 -1.923,7.354 -2.354,7.227 -2.719,7.086 -3.018,6.931 -3.239,6.821 -3.449,6.663 -3.648,6.459 -3.847,6.254 -4.025,6.042 -4.179,5.82 l -0.414,0.182 c 0.044,0.211 0.138,0.459 0.281,0.747 0.144,0.287 0.32,0.531 0.531,0.73 -0.321,0.121 -0.585,0.29 -0.796,0.506 -0.21,0.215 -0.316,0.444 -0.316,0.687 0,0.243 0.089,0.526 0.267,0.847 0.176,0.32 0.398,0.621 0.662,0.902 0.267,0.283 0.553,0.523 0.863,0.722 0.309,0.199 0.597,0.299 0.862,0.299 0.276,0 0.483,-0.075 0.621,-0.223 0.138,-0.15 0.209,-0.324 0.209,-0.523 0,-0.288 -0.117,-0.571 -0.348,-0.847 -0.333,0.266 -0.702,0.4 -1.112,0.4 -0.232,0 -0.458,-0.068 -0.68,-0.201 C -3.77,9.917 -3.88,9.723 -3.88,9.468 c 0,-0.143 0.046,-0.273 0.14,-0.39 0.094,-0.115 0.217,-0.215 0.365,-0.297 0.149,-0.084 0.315,-0.147 0.498,-0.191 0.182,-0.045 0.357,-0.066 0.523,-0.066 0.253,0 0.564,0.049 0.927,0.148 0.365,0.1 0.781,0.227 1.245,0.381 z M 1.542,-2.52 C 1.376,-3.405 1.105,-4.266 0.73,-5.106 0.353,-5.946 -0.105,-6.693 -0.646,-7.345 -1.189,-7.998 -1.802,-8.522 -2.487,-8.92 c -0.686,-0.398 -1.421,-0.597 -2.207,-0.597 -0.363,0 -0.743,0.033 -1.134,0.099 -0.393,0.065 -0.814,0.169 -1.261,0.307 -0.447,0.138 -0.934,0.317 -1.46,0.538 -0.524,0.222 -1.096,0.486 -1.716,0.797 l 0.199,0.496 c 0.355,-0.11 0.664,-0.203 0.929,-0.281 0.266,-0.077 0.508,-0.141 0.73,-0.19 0.222,-0.051 0.43,-0.086 0.629,-0.109 0.199,-0.021 0.416,-0.033 0.648,-0.033 0.529,0 1.075,0.086 1.633,0.257 0.558,0.172 1.106,0.401 1.642,0.688 0.536,0.288 1.04,0.62 1.517,0.995 0.475,0.377 0.901,0.766 1.276,1.169 0.376,0.404 0.682,0.807 0.921,1.212 0.238,0.402 0.384,0.776 0.439,1.118 h -0.505 c -0.194,0 -0.398,0.006 -0.613,0.016 -0.217,0.011 -0.434,0.026 -0.656,0.043 -0.221,0.016 -0.431,0.034 -0.63,0.057 -0.365,0.045 -0.718,0.13 -1.062,0.257 -0.342,0.128 -0.649,0.291 -0.919,0.49 -0.271,0.199 -0.487,0.435 -0.648,0.713 -0.159,0.276 -0.24,0.58 -0.24,0.911 0,0.796 0.109,1.529 0.324,2.198 0.216,0.669 0.492,1.243 0.829,1.724 0.337,0.48 0.715,0.857 1.136,1.128 0.419,0.27 0.828,0.406 1.226,0.406 0.432,0 0.83,-0.172 1.194,-0.514 C 0.099,4.633 0.418,4.192 0.687,3.656 0.958,3.12 1.182,2.524 1.36,1.866 1.535,1.208 1.647,0.559 1.692,-0.082 H 4.493 V -2.52 Z" /></g><g
           transform="translate(727.4489,158.1871)"
           id="g80"><path
             id="path82"
             style="fill:#231f20;fill-opacity:1;fill-rule:nonzero;stroke:none"
             d="M 0,0 C 0.155,-0.077 0.307,-0.155 0.457,-0.232 0.605,-0.309 0.758,-0.393 0.912,-0.48 1.221,-0.646 1.529,-0.807 1.833,-0.962 2.137,-1.116 2.423,-1.258 2.694,-1.384 2.966,-1.511 3.217,-1.614 3.449,-1.692 3.681,-1.769 3.88,-1.813 4.046,-1.823 3.957,-1.415 3.854,-0.991 3.732,-0.556 3.61,-0.118 3.466,0.283 3.299,0.648 3.135,1.011 2.941,1.314 2.719,1.55 2.499,1.789 2.251,1.907 1.974,1.907 1.277,1.907 0.62,1.271 0,0 M 4.444,-4.825 C 4.036,-4.736 3.623,-4.629 3.209,-4.501 2.795,-4.375 2.3,-4.172 1.725,-3.896 1.228,-3.664 0.741,-3.41 0.266,-3.133 c -0.476,0.276 -0.891,0.54 -1.244,0.795 -0.099,-0.187 -0.194,-0.376 -0.281,-0.564 -0.089,-0.187 -0.222,-0.421 -0.398,-0.697 -0.178,-0.276 -0.388,-0.486 -0.631,-0.629 -0.244,-0.143 -0.497,-0.216 -0.763,-0.216 h -1.227 c -0.121,0 -0.251,0.017 -0.389,0.05 -0.138,0.032 -0.272,0.08 -0.398,0.141 -0.127,0.061 -0.232,0.138 -0.316,0.232 -0.082,0.094 -0.123,0.202 -0.123,0.324 v 0.945 c 0,0.133 0.041,0.245 0.123,0.34 0.084,0.094 0.189,0.171 0.316,0.232 0.126,0.061 0.26,0.105 0.398,0.132 0.138,0.028 0.268,0.042 0.389,0.042 h 1.161 c 0.166,0 0.324,0.035 0.473,0.107 0.148,0.073 0.287,0.161 0.415,0.267 0.126,0.103 0.24,0.223 0.338,0.355 0.101,0.133 0.178,0.266 0.234,0.399 0.131,0.286 0.289,0.607 0.472,0.962 0.182,0.353 0.386,0.712 0.613,1.077 0.227,0.365 0.473,0.721 0.738,1.07 0.266,0.348 0.551,0.654 0.855,0.921 0.302,0.264 0.618,0.48 0.945,0.646 0.326,0.166 0.666,0.248 1.019,0.248 0.42,0 0.816,-0.211 1.186,-0.63 C 4.541,2.995 4.837,2.405 5.059,1.642 5.124,1.42 5.182,1.2 5.233,0.978 5.282,0.758 5.335,0.536 5.389,0.316 5.478,-0.15 5.583,-0.589 5.705,-1.003 5.826,-1.417 5.976,-1.818 6.152,-2.205 Z" /></g><g
           transform="translate(147.9749,277.9096)"
           id="g84"><path
             id="path86"
             style="fill:#2f3797;fill-opacity:1;fill-rule:nonzero;stroke:none"
             d="m 0,0 c -2.049,-2.499 -4.075,-5.046 -6.075,-7.647 l 10.5,-9.902 c 2.1,2.502 4.149,5.026 6.149,7.576 2,2.551 4.052,5.123 6.152,7.725 L 6.226,7.651 C 4.126,5.049 2.052,2.499 0,0" /></g><g
           transform="translate(140.2502,335.5132)"
           id="g88"><path
             id="path90"
             style="fill:#2f3797;fill-opacity:1;fill-rule:nonzero;stroke:none"
             d="m 0,0 c 1.097,0.096 2.148,0.148 3.148,0.148 5.5,0 8.899,-1.901 10.201,-5.699 -2.601,-2.399 -5.676,-4.801 -9.226,-7.2 -3.551,-2.399 -6.824,-4.702 -9.825,-6.901 -1.1,2.701 -2.524,5.274 -4.274,7.727 -1.752,2.448 -3.177,5.072 -4.274,7.873 2.1,1.901 6.847,3.248 14.25,4.052 m 50.4,-93.001 c -6.503,-1.698 -13.652,-3.2 -21.45,-4.499 -6.603,-1.1 -13.102,-1.65 -19.502,-1.65 -1.299,0.1 -2.601,0.148 -3.901,0.148 -7.798,0.202 -15.249,1.527 -22.347,3.975 -7.104,2.453 -13.201,6.525 -18.302,12.227 -1.601,1.9 -2.399,4 -2.399,6.3 0,2 0.547,4.148 1.65,6.448 2.399,5.1 5.776,10.249 10.124,15.452 4.351,5.197 8.975,9.973 13.876,14.324 4.898,4.351 8.4,7.474 10.5,9.374 2.898,2.599 5.85,5.326 8.851,8.175 3,2.849 5.746,5.975 8.248,9.374 2.001,2.901 4.352,8.201 7.05,15.903 1,2.698 1.502,5.046 1.502,7.05 0,3.698 -1.602,6.197 -4.802,7.499 -3.2,1.299 -6.802,1.949 -10.799,1.949 -2.1,0 -4.3,-0.148 -6.599,-0.45 -6.802,-1.1 -11.802,-2.801 -15.002,-5.098 -4.901,-3.601 -8.249,-10.001 -10.05,-19.202 -0.502,-2.299 -0.749,-4.499 -0.749,-6.599 0,-6.3 2.1,-11.802 6.3,-16.501 -6.802,-6.2 -13.453,-15.899 -19.949,-29.097 -4.901,-9.902 -7.351,-19.1 -7.351,-27.603 0,-2.698 0.247,-5.399 0.749,-8.101 2,-9.799 6.998,-16.648 15.002,-20.549 6.898,-3.396 14.498,-5.098 22.798,-5.098 1.399,0 2.849,0.052 4.351,0.148 9.998,0.701 20.026,3.377 30.075,8.027 10.05,4.65 18.125,10.674 24.226,18.074 v 0.151 c 0,0.1 -0.103,0.148 -0.302,0.148 -0.299,0 -0.901,-0.097 -1.798,-0.299" /></g><g
           transform="translate(232.798,329.8114)"
           id="g92"><path
             id="path94"
             style="fill:#2f3797;fill-opacity:1;fill-rule:nonzero;stroke:none"
             d="m 0,0 -1.801,4.052 -11.397,-16.951 c 0.997,-3.001 2.048,-6.3 3.148,-9.899 0.901,-3.302 1.351,-5.904 1.351,-7.802 v -0.512 c -3.782,-1.679 -8.547,-3.308 -14.327,-4.887 -5.85,-1.602 -10.973,-2.801 -15.372,-3.599 l -11.101,-19.951 c 4.2,1.1 9.548,2.45 16.05,4.049 6.5,1.598 11.497,3.351 14.999,5.251 4.101,2.1 7.85,5.101 11.25,8.998 4.502,5.403 7.351,10.803 8.551,16.202 0.797,3.901 1.199,7.548 1.199,10.95 0,1.3 -0.051,2.551 -0.151,3.75 C 1.897,-6.149 1.1,-2.698 0,0" /></g><g
           transform="translate(310.5719,266.3612)"
           id="g96"><path
             id="path98"
             style="fill:#2f3797;fill-opacity:1;fill-rule:nonzero;stroke:none"
             d="m 0,0 c -2.049,-2.499 -4.075,-5.046 -6.075,-7.647 l 10.5,-9.902 c 2.1,2.502 4.149,5.026 6.149,7.576 2,2.551 4.052,5.123 6.152,7.725 L 6.226,7.651 C 4.126,5.049 2.052,2.499 0,0" /></g><g
           transform="translate(377.7751,335.6644)"
           id="g100"><path
             id="path102"
             style="fill:#2f3797;fill-opacity:1;fill-rule:nonzero;stroke:none"
             d="m 0,0 c -4.65,0.199 -7.876,0 -9.677,-0.601 -2.601,0 -5.152,-2.776 -7.65,-8.326 -2.499,-5.548 -4.4,-9.774 -5.699,-12.674 -7.425,-2.328 -15.222,-3.915 -23.286,-4.958 -1.912,-0.166 -3.602,0.04 -4.988,0.758 -1.554,0.8 -2.178,2.347 -1.875,4.65 0.096,1.1 -0.502,1.701 -1.801,1.801 -3.602,0.399 -9.278,-0.627 -17.025,-3.075 -7.751,-2.453 -12.427,-5.229 -14.025,-8.326 -0.9,-1.801 -1.675,-3.675 -2.325,-5.624 -0.653,-1.949 -1.328,-3.776 -2.026,-5.477 -0.109,-0.215 -0.346,-0.613 -0.526,-0.931 -0.671,-0.298 -1.295,-0.682 -2.024,-0.87 -7.3,-1.901 -14.8,-3.502 -22.499,-4.798 -7.702,-1.303 -14.999,-3.152 -21.9,-5.551 -1.402,-0.601 -1.702,-1.251 -0.901,-1.949 1.299,-1.003 5.2,-2.527 11.7,-4.576 6.499,-2.052 10.599,-3.225 12.301,-3.525 5.299,-1.103 9.799,-1.199 13.5,-0.299 4.2,1.097 7.651,4.2 10.349,9.298 1,2 2.074,3.923 3.226,5.775 1.076,1.734 2.324,3.205 3.709,4.455 0.634,0.46 1.268,0.926 1.915,1.321 3.3,1.203 7.175,2.325 11.626,3.377 4.447,1.048 6.621,0.772 6.525,-0.827 -0.701,-4.701 0.997,-6.724 5.1,-6.074 1.966,0.311 3.934,0.648 5.901,0.972 l -0.051,-0.297 c 0.997,0.199 2,0.45 3,0.749 0.131,0.04 0.263,0.061 0.394,0.098 1.018,0.171 2.036,0.33 3.054,0.504 l 0.004,0.26 c 5.029,1.17 9.891,2.377 14.548,3.641 4.801,1.296 9.751,3.248 14.851,5.849 6.098,2.998 10.648,6.3 13.649,9.899 2.299,2.901 4.052,5.448 5.251,7.651 1.2,2.196 2.399,6.148 3.599,11.85 C 6.622,-2.151 4.65,-0.203 0,0" /></g><g
           transform="translate(622.05,285.287)"
           id="g104"><path
             id="path106"
             style="fill:#2f3797;fill-opacity:1;fill-rule:nonzero;stroke:none"
             d="M 0,0 H 2.984" /></g><g
           transform="translate(613.9772,303.0048)"
           id="g108"><path
             id="path110"
             style="fill:#2f3797;fill-opacity:1;fill-rule:nonzero;stroke:none"
             d="m 0,0 -72.042,-0.77 h -2.618 -17.195 -2.618 -17.199 -2.614 -17.199 -2.618 -17.196 -2.617 -17.196 -2.618 -17.944 -1.869 -1.248 c -4.071,0 -6.354,0.251 -6.853,0.749 -0.167,0.164 -0.666,4.236 -1.495,12.211 l -3.988,90.718 -2.865,-3.74 c -3.908,-5.152 -6.316,-8.432 -7.23,-9.844 l 1.496,-65.917 c 1.994,-26.917 3.196,-40.626 3.614,-41.125 h 18.569 1.869 17.944 2.618 17.196 2.617 17.196 2.618 17.199 2.614 17.199 2.618 17.195 2.618 80.115" /></g><g
           transform="translate(564.6821,259.5889)"
           id="g112"><path
             id="path114"
             style="fill:none;stroke:#231f20;stroke-width:2.83500004;stroke-linecap:butt;stroke-linejoin:miter;stroke-miterlimit:10;stroke-dasharray:none;stroke-opacity:1"
             d="m 0,0 -39.795,-66.835 c -0.889,-1.493 0.486,-3.211 2.57,-3.211 h 204.46 c 3.856,0 6.303,3.271 4.453,5.95 L 58.99,99.072" /></g><g
           transform="translate(685.8403,383.1422)"
           id="g116"><path
             id="path118"
             style="fill:none;stroke:#231f20;stroke-width:2.83500004;stroke-linecap:butt;stroke-linejoin:miter;stroke-miterlimit:10;stroke-dasharray:none;stroke-opacity:1"
             d="m 0,0 39.795,66.835 c 0.889,1.493 -0.486,3.211 -2.57,3.211 h -204.46 c -3.856,0 -6.304,-3.271 -4.453,-5.95 L -62.277,-97.712" /></g></g></g></g></svg>