<svg xmlns="http://www.w3.org/2000/svg" xmlns:xlink="http://www.w3.org/1999/xlink" version="1.1" width="645.126pt" height="366.126pt" viewBox="0 0 645.126 366.126">
<defs>
<clipPath id="clip_0">
<path transform="matrix(1,0,0,-1,0,366.126)" d="M0 366.126H645.126V0H0Z"/>
</clipPath>
</defs>
<g id="layer_1" data-name="Layer 1">
<text fill="#ffffff" xml:space="preserve" transform="matrix(1 0 -0 1 0 366.126)" font-size="28.9374" font-family="SakkalMajalla"><tspan y="-55.2998" x="407.2744 420.2673 426.54673 432.9419 439.2213 445.58757 460.11415 467.1083 477.6415 482.99494 493.0941 498.2247 507.68724 514.05349 525.1654 542.47 557.0776 569.23129">&#xfee2;&#xfef3;&#xfe8e;&#xfe97;&#xfffd;&#x062c;&#x062f;&#xfffd;&#xfffd;&#xfee3;&#xfe8e;&#xfffd;&#xfffd;&#xfe94;&#xfeb4;&#xfeb3;&#xfe86;&#xfee3;</tspan></text>
<g clip-path="url(#clip_0)">
<path transform="matrix(1,0,0,-1,79.0869,205.02082)" d="M0 0C-1.746-2.129-3.472-4.3-5.176-6.516L3.771-14.954C5.56-12.822 7.306-10.671 9.01-8.498 10.715-6.325 12.463-4.132 14.252-1.915L5.305 6.519C3.516 4.302 1.748 2.129 0 0" fill="#ffffff"/>
<path transform="matrix(1,0,0,-1,72.5047,155.93631)" d="M0 0C.934 .082 1.831 .126 2.683 .126 7.369 .126 10.265-1.493 11.375-4.73 9.158-6.774 6.538-8.821 3.513-10.865 .488-12.91-2.302-14.872-4.859-16.746-5.796-14.444-7.01-12.252-8.5-10.161-9.994-8.076-11.208-5.84-12.142-3.453-10.353-1.833-6.308-.685 0 0M42.946-79.247C37.405-80.694 31.314-81.974 24.668-83.081 19.042-84.018 13.504-84.487 8.051-84.487 6.944-84.402 5.834-84.361 4.727-84.361-1.918-84.188-8.268-83.059-14.315-80.974-20.369-78.883-25.564-75.413-29.911-70.555-31.275-68.935-31.955-67.146-31.955-65.187-31.955-63.482-31.489-61.652-30.549-59.692-28.505-55.346-25.627-50.959-21.923-46.525-18.215-42.097-14.274-38.027-10.098-34.32-5.925-30.612-2.94-27.951-1.151-26.332 1.318-24.118 3.834-21.794 6.39-19.366 8.947-16.938 11.287-14.274 13.419-11.378 15.124-8.906 17.127-4.39 19.426 2.173 20.278 4.472 20.706 6.473 20.706 8.18 20.706 11.331 19.341 13.46 16.615 14.57 13.888 15.677 10.819 16.231 7.413 16.231 5.623 16.231 3.749 16.105 1.789 15.847-4.006 14.91-8.268 13.46-10.994 11.504-15.17 8.435-18.023 2.981-19.558-4.859-19.985-6.818-20.196-8.692-20.196-10.482-20.196-15.85-18.407-20.539-14.828-24.542-20.624-29.826-26.291-38.09-31.826-49.337-36.002-57.774-38.09-65.611-38.09-72.857-38.09-75.156-37.879-77.458-37.452-79.76-35.747-88.109-31.489-93.946-24.668-97.27-18.79-100.164-12.315-101.614-5.242-101.614-4.05-101.614-2.814-101.57-1.535-101.488 6.985-100.89 15.529-98.61 24.093-94.648 32.656-90.685 39.537-85.553 44.736-79.247V-79.118C44.736-79.033 44.648-78.992 44.478-78.992 44.223-78.992 43.711-79.074 42.946-79.247" fill="#ffffff"/>
<path transform="matrix(1,0,0,-1,151.3654,160.7949)" d="M0 0-1.535 3.453-11.246-10.991C-10.397-13.548-9.501-16.36-8.563-19.426-7.796-22.24-7.413-24.457-7.413-26.074V-26.511C-10.635-27.942-14.695-29.33-19.621-30.675-24.605-32.04-28.971-33.062-32.719-33.741L-42.179-50.742C-38.6-49.805-34.043-48.654-28.502-47.292-22.964-45.93-18.705-44.437-15.721-42.817-12.227-41.028-9.032-38.471-6.136-35.15-2.299-30.546 .129-25.945 1.151-21.344 1.831-18.02 2.173-14.913 2.173-12.014 2.173-10.906 2.129-9.84 2.044-8.818 1.617-5.239 .937-2.299 0 0" fill="#ffffff"/>
<path transform="matrix(1,0,0,-1,217.6372,214.86132)" d="M0 0C-1.746-2.129-3.472-4.3-5.176-6.516L3.771-14.954C5.56-12.822 7.306-10.671 9.01-8.498 10.715-6.325 12.463-4.132 14.252-1.915L5.305 6.519C3.516 4.302 1.748 2.129 0 0" fill="#ffffff"/>
<path transform="matrix(1,0,0,-1,274.9015,155.80751)" d="M0 0C-3.962 .17-6.711 0-8.246-.512-10.463-.512-12.636-2.877-14.765-7.607-16.894-12.334-18.514-15.935-19.621-18.407-25.948-20.39-32.591-21.742-39.463-22.631-41.092-22.772-42.532-22.597-43.713-21.986-45.037-21.303-45.569-19.985-45.311-18.023-45.229-17.086-45.739-16.573-46.846-16.488-49.915-16.149-54.751-17.023-61.353-19.108-67.957-21.199-71.941-23.564-73.303-26.203-74.071-27.737-74.731-29.335-75.285-30.996-75.841-32.656-76.416-34.213-77.011-35.662-77.104-35.846-77.306-36.185-77.459-36.456-78.031-36.71-78.563-37.037-79.184-37.197-85.405-38.817-91.795-40.181-98.355-41.286-104.918-42.395-111.136-43.971-117.017-46.015-118.212-46.528-118.467-47.081-117.784-47.676-116.677-48.531-113.353-49.83-107.815-51.575-102.277-53.324-98.783-54.324-97.333-54.579-92.817-55.519-88.983-55.601-85.829-54.834-82.251-53.899-79.31-51.255-77.011-46.911-76.159-45.207-75.244-43.568-74.262-41.99-73.346-40.513-72.282-39.259-71.102-38.194-70.561-37.802-70.022-37.405-69.47-37.068-66.658-36.043-63.356-35.087-59.563-34.191-55.774-33.298-53.921-33.533-54.003-34.895-54.601-38.902-53.154-40.625-49.657-40.072-47.982-39.806-46.305-39.519-44.629-39.243L-44.673-39.496C-43.823-39.326-42.968-39.113-42.116-38.858-42.005-38.824-41.892-38.806-41.781-38.774-40.913-38.628-40.046-38.494-39.178-38.345L-39.174-38.123C-34.889-37.126-30.747-36.098-26.778-35.021-22.687-33.917-18.47-32.253-14.124-30.037-8.928-27.483-5.05-24.668-2.494-21.602-.534-19.13 .959-16.96 1.981-15.083 3.003-13.211 4.026-9.843 5.048-4.985 5.642-1.833 3.962-.173 0 0" fill="#ffffff"/>
<path transform="matrix(1,0,0,-1,483.0502,198.73451)" d="M0 0H2.543" fill="#ffffff"/>
<path transform="matrix(1,0,0,-1,476.1712,183.63701)" d="M0 0-61.388-.656H-63.618-78.271-80.501-95.157-97.384-112.04-114.27-128.923-131.153-145.806-148.036-163.327-164.919-165.983C-169.452-.656-171.398-.442-171.822-.018-171.965 .122-172.39 3.591-173.097 10.387L-176.495 87.689-178.936 84.502C-182.266 80.112-184.318 77.317-185.096 76.114L-183.822 19.946C-182.123-2.991-181.098-14.673-180.742-15.098H-164.919-163.327-148.036-145.806-131.153-128.923-114.27-112.04-97.384-95.157-80.501-78.271-63.618-61.388 6.879" fill="#ffffff"/>
<path transform="matrix(1,0,0,-1,434.1665,220.632)" d="M0 0C-4.878-8.317-28.893-49.454-33.294-56.849-33.294-56.849-33.501-57.201-33.501-57.201-33.643-57.455-33.699-57.745-33.627-58.027-33.149-59.526-31.056-59.147-29.815-59.181 12.626-58.983 99.022-58.788 141.47-58.884 143.276-59.038 145.515-58.537 145.999-56.648 146.235-55.76 145.571-54.952 145.088-54.254 141.795-49.672 113.592-8.308 109.63-2.681 94.756 18.942 64.994 62.696 50.265 84.42 65.391 62.905 95.721 19.658 110.707-1.938 115.204-8.372 142.992-48.48 146.854-54.034 148.982-56.878 146.318-60.243 143.203-60.449 119.624-60.673 28.275-60.346 3.124-60.338-2.618-60.303-26.017-60.217-31.462-60.186-33.379-60.36-35.678-58.493-34.113-56.361-29.832-49.26-4.893-8.021 0 0" fill="#fbb040"/>
<path transform="matrix(1,0,0,-1,537.4064,115.3513)" d="M0 0C5.177 8.847 28.748 49.198 33.503 57.209 33.815 57.757 33.625 58.361 33.107 58.756 32.292 59.371 31.236 59.147 30.251 59.181-8.353 58.993-94.699 58.8-133.455 58.874-133.455 58.874-140.003 58.884-140.003 58.884L-141.64 58.887C-142.987 58.964-144.641 58.736-145.496 57.637-146.496 56.437-145.914 55.27-145.033 54.152-128.229 29.224-98.787-14.594-82.066-39.632-82.066-39.631-53.067-83.261-53.067-83.261L-82.755-40.099C-99.747-15.184-129.47 28.326-146.331 53.265-148.974 56.275-147.184 59.856-143.385 60.418-141.322 60.581-135.645 60.454-133.455 60.5-94.645 60.574-8.422 60.382 30.251 60.193 31.413 60.175 32.715 60.338 33.709 59.532 34.524 58.949 34.936 57.643 34.334 56.727 29.695 49.007 5.208 8.555 0 0" fill="#fbb040"/>
</g>
</g>
</svg>
